<?xml version="1.0" encoding="UTF-8"?>
<svg width="32px" height="32px" viewBox="0 0 32 32" version="1.1" xmlns="http://www.w3.org/2000/svg">
  <title>Inventory Control Icon</title>
  <g stroke="none" stroke-width="1" fill="none" fill-rule="evenodd">
    <rect fill="#3B82F6" x="0" y="0" width="32" height="32" rx="4"></rect>
    <g transform="translate(4, 4)" fill="#FFFFFF" fill-rule="nonzero">
      <path d="M22,0 L2,0 C0.9,0 0,0.9 0,2 L0,22 C0,23.1 0.9,24 2,24 L22,24 C23.1,24 24,23.1 24,22 L24,2 C24,0.9 23.1,0 22,0 Z M22,22 L2,22 L2,2 L22,2 L22,22 Z"></path>
      <path d="M12,12 C14.21,12 16,10.21 16,8 C16,5.79 14.21,4 12,4 C9.79,4 8,5.79 8,8 C8,10.21 9.79,12 12,12 Z M12,6 C13.1,6 14,6.9 14,8 C14,9.1 13.1,10 12,10 C10.9,10 10,9.1 10,8 C10,6.9 10.9,6 12,6 Z"></path>
      <path d="M4,18 L20,18 L20,16 C20,13.79 16.42,12 12,12 C7.58,12 4,13.79 4,16 L4,18 Z M6,16 C6,15.4 8.71,14 12,14 C15.29,14 18,15.4 18,16 L6,16 Z"></path>
    </g>
  </g>
</svg>
